<?xml version="1.0" standalone="no"?>
<!DOCTYPE svg PUBLIC "-//W3C//DTD SVG 20010904//EN"
 "http://www.w3.org/TR/2001/REC-SVG-20010904/DTD/svg10.dtd">
<svg version="1.0" xmlns="http://www.w3.org/2000/svg"
 width="160.000000pt" height="160.000000pt" viewBox="0 0 160.000000 160.000000"
 preserveAspectRatio="xMidYMid meet">
<metadata>
Created by potrace 1.11, written by Peter Selinger 2001-2013
</metadata>
<g transform="translate(0.000000,160.000000) scale(0.100000,-0.100000)"
fill="#000000" stroke="none">
<path d="M0 800 l0 -800 800 0 800 0 0 800 0 800 -800 0 -800 0 0 -800z m926
295 c1 -66 0 -68 -10 -33 -15 48 -23 56 -19 15 l4 -32 -16 30 -15 30 5 -30 c3
-16 8 -39 11 -50 2 -11 -9 7 -26 40 l-31 60 5 -40 c2 -22 7 -49 10 -60 4 -11
-3 0 -15 23 -11 24 -23 59 -26 77 -5 29 -2 34 18 38 13 3 42 4 64 3 l40 -1 1
-70z m-145 43 c1 -13 2 -46 4 -73 1 -28 7 -61 14 -74 7 -13 9 -21 3 -18 -5 4
-17 27 -26 52 -20 50 -40 51 -32 2 4 -23 1 -19 -12 15 -9 26 -20 50 -24 53 -7
7 -1 -69 7 -96 3 -10 0 -21 -6 -25 -8 -4 -9 -3 -5 4 9 14 -12 55 -24 47 -7 -5
-21 23 -40 87 -8 26 -7 27 43 36 86 16 97 15 98 -10z m257 -9 c3 -23 3 -24
-11 -4 -14 18 -15 15 -10 -41 3 -34 1 -64 -4 -67 -5 -3 -8 7 -5 24 3 17 0 29
-7 29 -6 0 -11 -10 -12 -22 -1 -14 -6 -6 -13 20 -6 24 -14 40 -19 36 -4 -4 -7
0 -7 10 0 11 5 15 13 10 10 -6 10 -4 0 7 -22 23 -14 30 30 26 35 -3 43 -8 45
-28z m30 -15 c-3 -14 -5 -12 -10 9 -3 19 -2 25 4 19 6 -6 8 -18 6 -28z m42 16
c9 -6 10 -10 3 -10 -6 0 -13 -17 -15 -37 -3 -37 -4 -37 -8 10 -5 50 -4 52 20
37z m-490 -70 c23 -39 55 -87 72 -106 17 -19 24 -32 17 -29 -8 4 -32 28 -54
55 -22 27 -41 47 -43 45 -2 -1 4 -20 13 -41 9 -22 16 -41 17 -44 2 -18 12 -30
24 -30 8 0 14 -6 14 -14 0 -26 -16 -25 -28 2 -7 15 -24 41 -38 57 -28 32 -25
24 14 -40 l25 -40 -27 24 c-29 28 -35 19 -8 -13 16 -20 16 -20 -1 -7 -16 13
-18 12 -13 -12 4 -23 2 -26 -13 -17 -49 26 -130 155 -134 216 -2 27 2 29 58
45 33 10 61 18 61 18 1 1 21 -31 44 -69z m8 38 c15 -42 8 -48 -12 -9 -18 34
-19 41 -8 41 4 0 13 -14 20 -32z m528 10 c4 -6 3 -8 -4 -4 -7 4 -12 -7 -15
-31 l-4 -38 -1 43 c-2 40 9 55 24 30z m-106 -22 c0 -8 -4 -18 -10 -21 -5 -3
-10 3 -10 14 0 12 5 21 10 21 6 0 10 -6 10 -14z m147 -18 c-3 -7 -5 -2 -5 12
0 14 2 19 5 13 2 -7 2 -19 0 -25z m-761 -5 c11 -32 62 -137 84 -173 l22 -35
-32 35 c-19 21 -28 26 -21 13 15 -30 14 -38 -4 -23 -11 9 -15 9 -15 1 0 -6 20
-32 45 -56 42 -43 43 -45 17 -39 -68 16 -119 81 -131 166 -4 29 -12 62 -18 73
-9 16 -8 24 4 37 21 23 42 23 49 1z m781 -15 c-3 -7 -5 -2 -5 12 0 14 2 19 5
13 2 -7 2 -19 0 -25z m-408 -8 c11 -24 11 -24 -3 -6 -9 11 -16 24 -16 30 0 12
5 7 19 -24z m165 -16 c3 -8 2 -12 -4 -9 -6 3 -10 10 -10 16 0 14 7 11 14 -7z
m293 -6 c-3 -8 -6 -5 -6 6 -1 11 2 17 5 13 3 -3 4 -12 1 -19z m83 -71 c0 -7
-7 -22 -15 -33 -13 -17 -13 -16 -3 14 13 34 18 40 18 19z m-805 -119 l40 -42
-42 33 c-24 18 -43 37 -43 42 0 14 3 12 45 -33z m602 0 c103 -38 219 -134 262
-215 10 -20 9 -23 -8 -23 -11 0 -30 5 -43 10 -18 9 -43 5 -118 -18 -198 -61
-287 -65 -387 -16 -51 24 -163 134 -163 159 0 33 117 99 214 121 74 16 171 9
243 -18z m-566 5 c13 -16 12 -17 -3 -4 -10 7 -18 15 -18 17 0 8 8 3 21 -13z"/>
<path d="M500 1032 c0 -4 11 -24 25 -44 27 -40 31 -53 14 -42 -16 10 16 -48
37 -68 18 -16 19 -15 19 21 0 20 -8 48 -17 62 -10 13 -15 16 -12 7 11 -32 -5
-19 -32 27 -25 44 -34 53 -34 37z m84 -98 c3 -8 2 -12 -4 -9 -14 9 -12 -8 3
-25 6 -8 2 -6 -10 4 -23 19 -33 43 -13 31 6 -3 10 -1 10 4 0 16 7 13 14 -5z"/>
<path d="M922 798 c-19 -19 -14 -63 8 -83 13 -12 18 -26 14 -39 -4 -17 -3 -18
5 -6 10 13 12 13 21 0 8 -12 14 -10 39 14 16 16 35 41 42 57 10 25 9 32 -6 49
-22 24 -41 26 -53 4 -8 -14 -10 -14 -21 0 -16 19 -33 20 -49 4z"/>
<path d="M1110 730 c0 -5 5 -10 11 -10 5 0 7 5 4 10 -3 6 -8 10 -11 10 -2 0
-4 -4 -4 -10z"/>
<path d="M1050 674 c13 -32 13 -44 0 -44 -5 0 -10 9 -10 19 0 11 -4 22 -9 26
-6 3 -6 -6 -1 -25 7 -24 6 -32 -6 -37 -7 -3 -14 -9 -14 -14 0 -6 10 -4 23 2
34 18 77 61 77 78 0 13 -2 13 -9 2 -7 -11 -11 -10 -20 5 -9 16 -10 13 -6 -16
l5 -35 -15 33 c-18 38 -29 43 -15 6z"/>
<path d="M840 684 c0 -6 10 -24 22 -39 36 -47 146 -79 131 -38 -4 9 -8 12 -10
6 -3 -7 -16 -8 -36 -3 -48 10 -75 27 -91 58 -9 15 -15 22 -16 16z"/>
<path d="M961 634 c0 -11 3 -14 6 -6 3 7 2 16 -1 19 -3 4 -6 -2 -5 -13z"/>
</g>
</svg>
