<?xml version="1.0" encoding="utf-8"?>
<!-- Generator: Adobe Illustrator 20.1.0, SVG Export Plug-In . SVG Version: 6.00 Build 0)  -->
<svg version="1.1" id="Слой_1" xmlns="http://www.w3.org/2000/svg" xmlns:xlink="http://www.w3.org/1999/xlink" x="0px" y="0px"
	 viewBox="0 0 400 100" style="enable-background:new 0 0 400 100;" xml:space="preserve">
<style type="text/css">
	.st0{fill:#FF7BAC;}
</style>
<g>
	<path class="st0" d="M41.3,45.3v-1.1h2.2c1,0,1.8-0.3,2.3-1s1.1-2.2,1.7-4.5c0.1-0.5,0.3-1.1,0.5-1.9c0.1-0.5,0.4-1.6,0.8-3.4
		c0.1-0.6,0.2-1,0.3-1.4s0.3-1.1,0.6-2.2c0.4-1.7,1-4,1.6-7c0.7-3.1,1.2-5.5,1.6-7.1s0.9-3.1,1.3-4.4s1-2.5,1.6-3.6l-0.5-0.5
		L36.2,30.9c0,0.4,0.1,1.1,0.1,1.9c0,2.5-0.3,4.7-0.9,6.6s-1.4,3.4-2.3,4.4s-1.7,1.5-2.5,1.5c-1,0-1.5-0.8-1.5-2.3
		c0-2.6,1.3-6,3.9-10.4L28,6l-5.2,18.1c-1,3.5-1.8,6.1-2.4,8c-0.6,1.9-1.3,3.7-2,5.3c-0.8,1.6-1.6,3.1-2.6,4.4
		c-1.3,1.7-2.5,2.8-3.6,3.4s-2.3,0.9-3.5,0.9c-1.2,0-1.9-0.5-1.9-1.4c0-0.4,0.3-0.8,0.8-1.3s1.4-0.9,2.5-1.3s2.4-0.6,4.1-0.6
		c1.4-1.6,2.6-3.5,3.6-6s2.3-6.4,3.9-12l4.8-16.6c0-0.1,0.1-0.3,0.2-0.6s0.2-0.6,0.2-0.9c0-0.6-0.3-0.9-1-0.9
		c-0.9,0-2.3,0.9-4.4,2.6c-2.3,2-4.3,4.2-6.1,6.5c-0.5,0.7-1.3,1.7-2.5,3.2l-0.8-0.6c1-1.3,2.2-2.9,3.8-4.7c1.5-1.8,2.9-3.2,3.9-4.2
		C21.2,6,22.5,5,23.7,4.3s2.4-1,3.9-1c1.1,0,1.9,0.3,2.5,0.8s1,1.2,1.3,1.9s0.5,1.9,0.8,3.5l3.8,19.7L52.8,8.3c2.7-3.3,5.2-5,7.6-5
		c0.8,0,1.1,0.2,1.1,0.6c0,0.3-0.2,0.5-0.5,0.6c-0.8,0.1-1.5,0.7-2.1,1.6s-1,2.1-1.4,3.4s-0.7,2.9-1.1,4.7c-0.2,0.8-0.4,2-0.8,3.7
		c-0.3,1.4-0.8,3.7-1.4,6.8c-0.6,3-1.1,5.5-1.6,7.3s-1.1,3.8-1.9,5.8s-1.9,3.8-3.1,5.3c-0.2,0.3-0.4,0.5-0.4,0.6
		c0,0.3,0.2,0.5,0.6,0.6h0.5h0.7h6.7v1.1H41.3z M33.3,34.2c-0.8,1.3-1.5,2.8-2,4.3c-0.6,1.5-0.9,2.9-0.9,4c0,0.8,0.2,1.1,0.6,1.1
		c0.3,0,0.7-0.3,1.1-0.8c0.4-0.5,0.7-1.3,1-2.3c0.3-1,0.4-2.2,0.4-3.5C33.5,36.6,33.5,35.6,33.3,34.2z"/>
	<path class="st0" d="M77.2,35.3l0.7,0.3l-2.6,4.7c-1.2,2.2-2.2,3.7-3,4.4s-1.5,1.1-2.2,1.1c-1.4,0-2.2-0.9-2.2-2.8
		c0-1,0.2-1.9,0.5-2.7l2.4-6.5h-0.2c-0.2,0.3-0.8,1.3-1.7,2.8c-1.4,2.1-3,4.2-4.8,6.3c-1.8,2-3.4,3-4.8,3c-0.7,0-1.3-0.3-1.8-1
		s-0.8-1.8-0.8-3.6c0-2.3,1.1-5.1,3.2-8.2s4.5-5.7,7-7.8c2.8-2.2,4.9-3.4,6.4-3.4c1,0,1.7,0.3,2.1,0.8s0.6,1.1,0.6,1.7
		c0,0.4,0,0.8-0.1,1.2s-0.2,0.7-0.3,1.1s-0.2,0.6-0.3,0.7l-4.3,12.9c-0.3,0.8-0.4,1.3-0.4,1.4c0,0.1-0.1,0.4-0.2,0.8
		c-0.2,0.6-0.4,1.2-0.4,1.6c0,0.5,0.2,0.7,0.5,0.7c0.9,0,2.3-1.7,4.2-5.1L77.2,35.3z M71.8,29.5c1.5-3.1,2.2-5,2.2-5.7
		c0-0.6-0.3-0.8-1-0.8c-1,0-2.5,0.9-4.4,2.8c-0.8,0.7-1.7,1.8-2.7,3.1s-2.1,2.9-3.3,4.8s-2.1,3.7-3.1,5.7c-0.9,2.2-1.4,3.5-1.4,4.1
		c0,1,0.4,1.5,1.1,1.5c1.2,0,3-1.4,5.3-4.1C67.4,37.6,69.8,33.8,71.8,29.5z"/>
	<path class="st0" d="M93.5,33.8h1c-0.6,2.1-1.4,4-2.4,5.8s-2.3,3.3-3.7,4.5s-2.9,1.7-4.4,1.7c-1.9,0-3.2-0.7-3.9-2s-1.1-2.7-1.1-4
		c0-1.7,0.3-3.7,1-5.8s1.9-4.4,3.6-6.6c2.9-3.6,5.9-5.4,9.1-5.4c0.7,0,1.3,0.1,1.8,0.4s0.8,0.7,0.8,1.3c0,1.2-0.5,1.9-1.6,1.9
		c-0.8,0-1.4-0.4-1.6-1.3v-0.6c0-0.4,0.1-0.6,0.4-0.8v-0.1c-1.2,0-2.4,0.5-3.6,1.5s-2.1,2.1-2.9,3.4c-1,1.7-2,4-3,6.8
		s-1.5,5.2-1.5,7c0,0.6,0.2,1.4,0.7,2.2s1.3,1.3,2.6,1.3c1.1,0,2.2-0.6,3.4-1.8s2.2-2.6,3.2-4.3S92.9,35.5,93.5,33.8z"/>
	<path class="st0" d="M118.1,23.6h-5.8l-7.3,21.7h-2.8l7.3-21.7h-5.8l-7.3,21.7h-2.7l7.3-21.7h-3.8v-0.9h27v0.9h-3.4l-6.3,17.6
		c0,0.1,0,0.1,0,0.2s0,0.1-0.1,0.2c0,0.1-0.1,0.2-0.2,0.4c0,0.1-0.1,0.2-0.2,0.5c0,0.3-0.1,0.4-0.2,0.5c-0.2,0.4-0.3,0.9-0.3,1.3
		c0,0.4,0.2,0.7,0.6,0.7c0.2,0,0.5-0.1,0.9-0.4c0.3-0.2,0.5-0.4,0.5-0.5c0,0,0.1-0.1,0.2-0.2c0.4-0.4,0.8-0.9,1.1-1.5
		c0.1-0.1,0.2-0.3,0.4-0.5s0.3-0.4,0.4-0.6c0.4-0.5,0.6-0.8,0.8-1.1l3.1-5l0.7,0.4l-2.8,4.7c-0.4,0.7-0.9,1.3-1.3,2
		c-0.2,0.3-0.3,0.4-0.3,0.5s-0.1,0.2-0.3,0.4c-1.2,1.9-2.4,2.8-3.6,2.8c-0.8,0-1.3-0.3-1.7-1c-0.4-0.6-0.6-1.4-0.6-2.1
		c0-0.9,0.3-2.1,1-3.5L118.1,23.6z"/>
	<path class="st0" d="M135.9,35.8l0.9,0.4c-0.7,1.8-1.5,3.5-2.5,5s-2.2,2.7-3.3,3.5c-1.2,0.8-2.3,1.3-3.4,1.3
		c-1.1,0-2.1-0.4-2.9-1.3s-1.2-2-1.2-3.5c0-2.1,0.4-4.3,1.2-6.6s1.8-4.4,3.1-6.3c1.3-1.9,2.6-3.4,4-4.5c1.4-1.1,2.7-1.7,3.8-1.7
		c0.9,0,1.6,0.3,2.1,0.9s0.8,1.3,0.8,2.2c0,1.2-0.4,2.6-1.3,4.4s-2.2,3.4-4.1,5.1c-1.8,1.7-4.1,3-6.8,3.9c-0.4,1.6-0.5,2.9-0.5,3.9
		c0,1.7,0.6,2.6,1.9,2.6c1,0,2-0.4,3.2-1.3s2.1-2,3.1-3.5C134.6,38.8,135.4,37.3,135.9,35.8z M126.2,37.5c1.8-0.7,3.5-1.9,5.2-3.6
		s2.9-3.5,3.9-5.3s1.5-3.3,1.5-4.3c0-0.9-0.4-1.4-1.2-1.4c-0.7,0-1.5,0.4-2.3,1.2c-0.9,0.8-1.7,1.9-2.6,3.3c-0.9,1.4-1.7,3-2.5,4.7
		C127.3,33.9,126.7,35.7,126.2,37.5z"/>
	<path class="st0" d="M134.1,62.1l5.1-16.1c-0.8,0-1.8-0.2-2.9-0.7l0.2-1.1c1.1,0.5,2.2,0.7,3.1,0.7l9.5-30.5h-0.2L140,29.3
		l-0.8-0.4l9.7-16.1c1.1-1.8,2-4,2.8-6.4l1.6-5.2h1.2l-8.6,29.6h0.3c0.4-0.6,0.7-1.1,1.1-1.7c2.7-4.7,5.2-7.1,7.3-7.1
		c2.2,0,3.2,1.2,3.2,3.7c0,2.1-0.6,4.5-1.9,7.1s-2.7,4.9-4.3,6.8c-1.7,1.9-3.3,3.5-4.8,4.6s-3.3,1.7-5.3,1.8l-4.8,16.2H134.1z
		 M141.7,44.9c2-0.3,4-1.5,6.1-3.7c0.9-1,1.7-2,2.4-3.1s1.3-2,1.7-3s1-2.1,1.6-3.5c0.5-1.2,1-2.6,1.6-4.2c0.4-1.1,0.5-1.9,0.5-2.5
		c0-1.4-0.4-2-1.3-2c-0.3,0-0.8,0.2-1.3,0.5c-1.1,0.8-2.1,1.8-2.9,3c-1.5,2-2.9,4.3-4.2,6.8c-1.1,1.9-1.9,3.9-2.4,5.8L141.7,44.9z"
		/>
	<path class="st0" d="M173,33.8h1c-0.6,2.1-1.4,4-2.4,5.8s-2.3,3.3-3.7,4.5s-2.9,1.7-4.4,1.7c-1.9,0-3.2-0.7-3.9-2s-1.1-2.7-1.1-4
		c0-1.7,0.3-3.7,1-5.8s1.9-4.4,3.6-6.6c2.9-3.6,5.9-5.4,9.1-5.4c0.7,0,1.3,0.1,1.8,0.4s0.8,0.7,0.8,1.3c0,1.2-0.5,1.9-1.6,1.9
		c-0.8,0-1.4-0.4-1.6-1.3v-0.6c0-0.4,0.1-0.6,0.4-0.8v-0.1c-1.2,0-2.4,0.5-3.6,1.5s-2.1,2.1-2.9,3.4c-1,1.7-2,4-3,6.8
		s-1.5,5.2-1.5,7c0,0.6,0.2,1.4,0.7,2.2s1.3,1.3,2.6,1.3c1.1,0,2.2-0.6,3.4-1.8s2.2-2.6,3.2-4.3S172.4,35.5,173,33.8z"/>
	<path class="st0" d="M175.2,45.3l9.7-30.9h-0.2l-8.9,14.9l-0.8-0.4l9.7-16.1c1-1.7,1.9-3.8,2.8-6.4l1.6-5.2h1.2l-10.9,38h0.4
		c0.6-1.2,1.6-2.9,3-5c1.1-1.7,2.4-3.4,3.9-5.3s3-3.5,4.6-4.8c1.6-1.4,2.9-2.1,4.1-2.1c1.4,0,2,0.6,2,1.8c0,0.3-0.1,0.7-0.3,1
		c-0.2,0.3-0.5,0.5-1,0.5c-0.9,0-1.3-0.4-1.3-1.3c0-0.6,0.3-1,0.8-1V23c-1.7,0-4.1,1.8-7.1,5.3c-1,1.1-1.8,2.1-2.3,2.8
		c-0.2,0.3-0.4,0.5-0.5,0.7s-0.4,0.5-0.6,0.8c0.8,0.5,1.5,1.1,2,1.7c0.5,0.6,0.9,1.3,1.1,1.9s0.4,1.2,0.4,1.7s0.1,1.3,0.2,2.3
		c0.1,2,0.5,3.3,1,3.9s1.2,1,2,1c0.7,0,1.3-0.2,1.7-0.7c0.4-0.5,0.6-1,0.6-1.7c0-0.6-0.1-1.1-0.4-1.3S192.7,41,192,41v-0.7
		c0.9,0,1.6,0.2,2.1,0.5c0.5,0.3,0.7,0.9,0.7,1.8c0,1-0.3,1.9-0.9,2.5s-1.4,0.9-2.4,0.9c-3.2,0-5-2.7-5.4-8.1
		c-0.1-1.7-0.3-2.9-0.5-3.5c-0.2-0.6-0.5-1-1.1-1.2c-0.3,0.4-0.9,1.3-1.7,2.6c-1.2,1.9-2.3,3.8-3.3,5.6l-1.9,3.9H175.2z"/>
	<path class="st0" d="M215.4,35.3l0.7,0.3l-2.6,4.7c-1.2,2.2-2.2,3.7-3,4.4c-0.8,0.8-1.5,1.1-2.2,1.1c-1.4,0-2.2-0.9-2.2-2.8
		c0-1,0.2-1.9,0.5-2.7l2.4-6.5h-0.2c-0.2,0.3-0.8,1.3-1.7,2.8c-1.4,2.1-3,4.2-4.8,6.3c-1.8,2-3.4,3-4.8,3c-0.7,0-1.3-0.3-1.8-1
		s-0.8-1.8-0.8-3.6c0-2.3,1.1-5.1,3.2-8.2s4.5-5.7,7-7.8c2.8-2.2,4.9-3.4,6.4-3.4c1,0,1.7,0.3,2.1,0.8s0.6,1.1,0.6,1.7
		c0,0.4,0,0.8-0.1,1.2s-0.2,0.7-0.3,1.1c-0.1,0.4-0.2,0.6-0.3,0.7L209,40.4c-0.3,0.8-0.4,1.3-0.4,1.4c0,0.1-0.1,0.4-0.2,0.8
		c-0.2,0.6-0.4,1.2-0.4,1.6c0,0.5,0.2,0.7,0.5,0.7c0.9,0,2.3-1.7,4.2-5.1L215.4,35.3z M210,29.5c1.5-3.1,2.2-5,2.2-5.7
		c0-0.6-0.3-0.8-1-0.8c-1,0-2.5,0.9-4.4,2.8c-0.8,0.7-1.7,1.8-2.7,3.1s-2.1,2.9-3.3,4.8s-2.1,3.7-3.1,5.7c-0.9,2.2-1.4,3.5-1.4,4.1
		c0,1,0.4,1.5,1.1,1.5c1.2,0,3-1.4,5.3-4.1C205.6,37.6,208,33.8,210,29.5z"/>
	<path class="st0" d="M241.2,23.6h-2.5l-6.3,17.6c0,0.1-0.1,0.2-0.1,0.4s-0.1,0.3-0.1,0.4c-0.2,0.4-0.3,0.7-0.3,0.8
		c-0.1,0.5-0.2,0.7-0.2,0.7c-0.1,0.3-0.2,0.6-0.2,0.8c0,0.4,0.2,0.7,0.6,0.7c0.1,0,0.3,0,0.4-0.1c0.1-0.1,0.3-0.2,0.4-0.3
		s0.3-0.2,0.5-0.3c0.6-0.6,1.6-1.9,3-4.1l3.1-5l0.7,0.4l-2.8,4.7c-1.2,1.9-2.2,3.4-3.2,4.4c-0.8,0.8-1.6,1.3-2.3,1.3
		c-0.7,0-1.3-0.3-1.7-0.9c-0.4-0.6-0.6-1.3-0.6-2.2c0-0.8,0.3-2,1-3.5l5.5-15.7h-4c-4.3,0-6.4,2.2-6.4,6.5c0,2,1,3,3.1,3h1.4v1
		c-0.2-0.1-0.7-0.1-1.3-0.1c-1.3,0-2.3,0.3-3.1,1c-0.8,0.7-1.6,2.1-2.5,4.1c-0.6,1.3-1.1,2.5-1.6,3.4c-0.5,0.9-1.3,1.7-2.2,2.4
		c-1,0.7-2.1,1-3.5,1c-1,0-1.8-0.3-2.2-0.9c-0.4-0.6-0.7-1.2-0.7-1.8c0-0.7,0.2-1.3,0.7-1.9c0.5-0.6,1.4-0.9,2.6-0.9v0.8
		c-0.3-0.1-0.6-0.2-0.9-0.2c-0.5,0-0.9,0.2-1.2,0.5c-0.3,0.3-0.5,0.8-0.5,1.4c0,0.6,0.2,1.1,0.6,1.4s1,0.5,1.7,0.5
		c0.6,0,1.2-0.2,1.6-0.6s1-1.3,1.5-2.7c0.9-2.4,1.9-4.2,2.9-5.5c1-1.3,2.6-2.2,4.6-2.6v-0.3c-1.2-0.2-2.1-0.8-2.8-1.6
		c-0.7-0.8-1-1.7-1-2.7c0-0.9,0.2-1.8,0.7-2.8c0.5-1,1.4-1.8,2.7-2.5c1.3-0.7,3.2-1.1,5.5-1.1h9.7V23.6z"/>
	<path class="st0" d="M257.4,62.1l5.1-16.1c-0.8,0-1.8-0.2-2.9-0.7l0.2-1.1c1.1,0.5,2.2,0.7,3.1,0.7l9.5-30.5h-0.2l-8.9,14.9
		l-0.8-0.4l9.7-16.1c1.1-1.8,2-4,2.8-6.4l1.6-5.2h1.2l-8.6,29.6h0.3c0.4-0.6,0.7-1.1,1.1-1.7c2.7-4.7,5.2-7.1,7.3-7.1
		c2.2,0,3.2,1.2,3.2,3.7c0,2.1-0.6,4.5-1.9,7.1s-2.7,4.9-4.3,6.8c-1.7,1.9-3.3,3.5-4.8,4.6c-1.6,1.1-3.3,1.7-5.3,1.8l-4.8,16.2
		H257.4z M265,44.9c2-0.3,4-1.5,6.1-3.7c0.9-1,1.7-2,2.4-3.1s1.3-2,1.7-3c0.5-0.9,1-2.1,1.6-3.5c0.5-1.2,1-2.6,1.6-4.2
		c0.4-1.1,0.5-1.9,0.5-2.5c0-1.4-0.4-2-1.3-2c-0.3,0-0.8,0.2-1.3,0.5c-1.1,0.8-2.1,1.8-2.9,3c-1.5,2-2.9,4.3-4.2,6.8
		c-1.1,1.9-1.9,3.9-2.4,5.8L265,44.9z"/>
	<path class="st0" d="M294.3,35.8l0.9,0.4c-0.7,1.8-1.5,3.5-2.5,5c-1,1.5-2.2,2.7-3.3,3.5s-2.3,1.3-3.4,1.3c-1.1,0-2.1-0.4-2.9-1.3
		c-0.8-0.8-1.2-2-1.2-3.5c0-2.1,0.4-4.3,1.2-6.6s1.8-4.4,3.1-6.3c1.3-1.9,2.6-3.4,4-4.5s2.7-1.7,3.8-1.7c0.9,0,1.6,0.3,2.1,0.9
		s0.8,1.3,0.8,2.2c0,1.2-0.4,2.6-1.3,4.4s-2.2,3.4-4.1,5.1s-4.1,3-6.8,3.9c-0.4,1.6-0.5,2.9-0.5,3.9c0,1.7,0.6,2.6,1.9,2.6
		c1,0,2-0.4,3.2-1.3c1.1-0.9,2.1-2,3.1-3.5S293.7,37.3,294.3,35.8z M284.6,37.5c1.8-0.7,3.5-1.9,5.2-3.6s2.9-3.5,3.9-5.3
		c1-1.9,1.5-3.3,1.5-4.3c0-0.9-0.4-1.4-1.2-1.4c-0.7,0-1.5,0.4-2.3,1.2c-0.9,0.8-1.7,1.9-2.6,3.3c-0.9,1.4-1.7,3-2.5,4.7
		S285.1,35.7,284.6,37.5z"/>
	<path class="st0" d="M311.8,33.8h1c-0.6,2.1-1.4,4-2.4,5.8s-2.3,3.3-3.7,4.5s-2.9,1.7-4.4,1.7c-1.9,0-3.2-0.7-3.9-2s-1.1-2.7-1.1-4
		c0-1.7,0.3-3.7,1-5.8s1.9-4.4,3.6-6.6c2.9-3.6,5.9-5.4,9.1-5.4c0.7,0,1.3,0.1,1.8,0.4s0.8,0.7,0.8,1.3c0,1.2-0.5,1.9-1.6,1.9
		c-0.8,0-1.4-0.4-1.6-1.3v-0.6c0-0.4,0.1-0.6,0.4-0.8v-0.1c-1.2,0-2.4,0.5-3.6,1.5s-2.1,2.1-2.9,3.4c-1,1.7-2,4-3,6.8
		c-1,2.9-1.5,5.2-1.5,7c0,0.6,0.2,1.4,0.7,2.2s1.3,1.3,2.6,1.3c1.1,0,2.2-0.6,3.4-1.8c1.2-1.2,2.2-2.6,3.2-4.3
		S311.3,35.5,311.8,33.8z"/>
	<path class="st0" d="M314.7,45.3l6.5-18.6c0-0.1,0.1-0.2,0.1-0.3c0-0.1,0.1-0.2,0.2-0.4c0-0.1,0.1-0.1,0.1-0.2
		c0-0.1,0.1-0.2,0.1-0.3c0-0.1,0.1-0.3,0.2-0.5c0.2-0.6,0.3-0.9,0.3-0.9v-0.4c0-0.5-0.2-0.7-0.5-0.7c-0.6,0-1.3,0.6-2.3,1.9
		c-0.1,0.1-0.2,0.2-0.2,0.3s-0.1,0.1-0.2,0.2c-0.3,0.4-0.6,0.8-0.8,1.2c-0.2,0.3-0.3,0.5-0.4,0.6c-0.1,0.2-0.2,0.4-0.4,0.6l-3.1,5
		l-0.7-0.4l2.9-4.7c1.3-2.1,2.3-3.6,3.2-4.4c0.8-0.8,1.6-1.3,2.3-1.3c0.6,0,1.1,0.2,1.5,0.7s0.7,1,0.7,1.5v0.9
		c0,0.6-0.2,1.2-0.4,1.8c-0.1,0.2-0.2,0.4-0.2,0.7c-0.1,0.3-0.2,0.4-0.2,0.6c-0.1,0.1-0.1,0.3-0.2,0.4l-1.5,4.3h7.7l3.6-10.3h2.7
		l-6.5,18.5c0,0.1-0.1,0.2-0.1,0.3s-0.1,0.2-0.2,0.4c0,0.1,0,0.1-0.1,0.2s-0.1,0.2-0.1,0.3c-0.3,0.8-0.5,1.4-0.5,1.9
		c0,0.4,0.2,0.7,0.5,0.7c0.1,0,0.4-0.1,0.7-0.2c0.1-0.1,0.2-0.2,0.3-0.2c0.2-0.1,0.4-0.3,0.5-0.4c0.5-0.5,0.9-1.1,1.3-1.6
		c0.1-0.2,0.2-0.3,0.3-0.4c0.1-0.1,0.2-0.3,0.3-0.4c0.3-0.4,0.7-0.9,1-1.5l3.1-5l0.7,0.4l-2.9,4.7c-1.4,2.3-2.4,3.7-2.9,4.3
		c-0.2,0.1-0.3,0.2-0.4,0.4c-0.7,0.7-1.4,1.1-2.2,1.1c-0.6,0-1.1-0.2-1.5-0.7s-0.6-1-0.7-1.4v-1c0-0.5,0.1-0.9,0.2-1.2
		c0.1-0.3,0.3-1,0.8-2.3l1.9-5.5h-7.7l-4,11.5H314.7z"/>
	<path class="st0" d="M357.3,26.3h-0.4l-15.5,19h-2.5l6.6-18.6c0-0.1,0.1-0.2,0.1-0.3s0.1-0.2,0.2-0.4c0-0.1,0.1-0.1,0.1-0.2
		s0.1-0.2,0.1-0.3c0-0.1,0.1-0.3,0.2-0.5c0.2-0.6,0.3-0.9,0.3-0.9v-0.4c0-0.5-0.2-0.7-0.5-0.7c-0.6,0-1.3,0.6-2.3,1.9
		c-0.1,0.1-0.2,0.2-0.2,0.3s-0.1,0.1-0.2,0.2c-0.3,0.4-0.6,0.8-0.8,1.2c-0.2,0.3-0.3,0.5-0.4,0.6c-0.1,0.2-0.2,0.4-0.4,0.6l-3.1,5
		l-0.7-0.4l2.9-4.7c1.3-2.1,2.3-3.6,3.2-4.4c0.8-0.8,1.6-1.3,2.3-1.3c0.6,0,1.1,0.2,1.5,0.7c0.4,0.5,0.7,1,0.7,1.5v0.9
		c0,0.6-0.2,1.2-0.4,1.8c-0.1,0.2-0.2,0.4-0.2,0.7c-0.1,0.3-0.2,0.6-0.4,1l-4.6,13h0.4l15.7-19h2.4l-6.6,18.5c0,0.1-0.1,0.2-0.2,0.4
		s-0.1,0.2-0.1,0.4c0,0.1,0,0.1-0.1,0.2s-0.1,0.2-0.1,0.3c-0.3,0.7-0.5,1.3-0.5,1.9c0,0.4,0.2,0.7,0.6,0.7c0.2,0,0.5-0.1,0.9-0.4
		c0.3-0.2,0.5-0.4,0.5-0.5c0,0,0,0,0.1-0.1s0.1-0.1,0.1-0.2c0.7-0.7,1.6-1.9,2.7-3.7l3.1-5l0.7,0.4l-2.8,4.7
		c-2.3,3.8-4.2,5.7-5.5,5.7c-0.8,0-1.3-0.3-1.7-1s-0.6-1.4-0.6-2.1c0-0.9,0.3-2.1,1-3.5L357.3,26.3z"/>
	<path class="st0" d="M367.4,44.4h7.7l7.2-21.7h2.8l-7.3,21.7h3.9v0.9c-1.3,0.1-2.5,0.5-3.5,1.2c-1.3,1.1-2.7,3-4.2,5.8
		c-1.3,2.5-2.3,4.4-3.2,5.7c-0.9,1.3-1.8,2.3-2.9,3s-2.4,1-4,1c-1.3,0-2.4-0.2-3.3-0.7v-1c0.8,0.6,1.8,0.8,3.1,0.8
		c2.8,0,4.9-1.5,6.3-4.6c0.2-0.5,0.6-1.1,1-1.9c0.1-0.2,0.2-0.3,0.3-0.6c0.1-0.2,0.3-0.5,0.5-1c0.7-1.4,1.7-2.9,2.8-4.5
		s2.5-2.6,4-3.2v-0.2h-17.2v-0.9h3.4l6.2-17.7c0-0.1,0.1-0.2,0.1-0.3s0.1-0.2,0.2-0.4c0-0.1,0.1-0.1,0.1-0.2s0.1-0.2,0.1-0.3
		c0-0.1,0.1-0.3,0.2-0.5c0.2-0.6,0.3-0.9,0.3-0.9v-0.4c0-0.5-0.2-0.7-0.5-0.7c-0.3,0-0.7,0.3-1.2,0.8s-0.9,0.9-1.1,1.3
		c-0.2,0.2-0.4,0.4-0.5,0.5c-0.6,0.8-1.1,1.5-1.5,2.3l-3.1,5l-0.7-0.4l2.9-4.7c1.3-2.1,2.3-3.6,3.2-4.4c0.8-0.8,1.6-1.3,2.3-1.3
		c0.6,0,1.1,0.2,1.5,0.7c0.4,0.5,0.7,1,0.7,1.5v0.9c0,0.6-0.2,1.2-0.4,1.8c-0.1,0.2-0.2,0.4-0.2,0.7c-0.1,0.3-0.2,0.6-0.4,1
		L367.4,44.4z"/>
</g>
<g>
	<path class="st0" d="M197,90.6c0,0.2,0,0.3,0,0.4c0,0.1-0.1,0.2-0.2,0.3c-2.2,1.7-4.2,2.8-6,3.4c-1.8,0.6-3.5,0.9-5,1
		c-1,0-2-0.3-3-1.1c-1.2,1-2.4,1.8-3.6,2.4c-1.2,0.6-2.5,0.9-3.9,1c-0.9,0-1.6-0.2-2.2-0.6c-0.6-0.4-0.9-1-0.9-1.9
		c0-2.1,1.5-4.5,4.6-7.2c1.5-1.3,2.9-2.2,4.3-2.8c1.3-0.6,2.5-0.9,3.4-0.9c2,0,3.1,1,3.1,2.9c0,1-0.3,2.1-0.8,3.1
		c-0.6,1-1.5,2.1-2.8,3.1c0.5,0.5,1.2,0.8,2,0.8c0.6,0,1.2,0,1.9-0.1c0.7-0.1,1.4-0.2,2.3-0.5c0.8-0.3,1.8-0.7,2.8-1.2
		c1-0.5,2.2-1.3,3.5-2.2c0.1-0.1,0.3-0.1,0.4-0.1C197,90.3,197,90.4,197,90.6z M182.2,93.5c-0.4-0.4-0.7-0.9-0.8-1.4
		c-0.2-0.6-0.2-1.1-0.2-1.7c0-0.6,0.1-1.2,0.3-1.8c0.2-0.6,0.4-1.2,0.6-1.8c-0.7,0.2-1.5,0.5-2.3,1c-0.8,0.5-1.6,1-2.3,1.7
		c-0.7,0.6-1.3,1.3-1.8,2.1c-0.5,0.7-0.8,1.5-0.9,2.2c-0.1,0.7,0.1,1.3,0.4,1.6c0.4,0.4,0.8,0.6,1.4,0.6
		C178.3,95.8,180.2,95.1,182.2,93.5z M186.7,86.9c0-0.4-0.1-0.6-0.2-0.8c-0.1-0.2-0.4-0.3-0.9-0.3c-0.8,0-1.6,0.4-2.3,1.2
		c-0.7,0.8-1,1.6-1.1,2.6c0,1.5,0.3,2.5,0.8,2.9C185.5,90.6,186.7,88.7,186.7,86.9z"/>
	<path class="st0" d="M238.9,91.2c0,0.1,0,0.3,0,0.4c-0.1,0.1-0.2,0.2-0.3,0.2c-2,1-3.7,1.9-5.1,2.5c-1.4,0.7-2.6,1.2-3.6,1.6
		c-1,0.4-1.9,0.7-2.7,0.8c-0.8,0.2-1.6,0.3-2.3,0.3c-2.3,0.1-3.5-1-3.5-3.4c0-0.8,0.1-1.6,0.3-2.3c0.2-0.8,0.5-1.5,1-2.3
		c-0.3,0-0.7,0.1-1.2,0.4c-0.5,0.3-1.1,0.6-1.6,0.8c-1.9,0.8-3.6,1.8-5.1,2.9c-1.5,1.1-2.9,1.9-3.9,2.5c-1.9,1-3,1.6-3.4,1.6
		c-0.8,0-1.2-0.4-1.2-1.1c0-0.6,0.5-1.7,1.6-3.1c0.7-0.8,1.3-1.6,2-2.4c0.6-0.8,1.3-1.6,2-2.4c-4.6,2.9-8.1,5-10.6,6.5
		c-2.4,1.4-3.8,2.2-4,2.2c-0.6,0-1-0.3-1-0.8c0.2-0.2,0.5-0.6,0.8-1c0.3-0.3,0.6-0.7,1-1.2c0.4-0.5,0.9-1,1.5-1.6
		c1.2-1.2,2.1-2.3,2.7-3.2c0.6-0.9,0.9-1.4,0.8-1.8c0-0.2-0.2-0.2-0.4-0.2c-0.2,0-0.4,0.1-0.5,0.2c-0.1,0-0.3,0.1-0.5,0.1
		c-0.2,0.1-0.5,0.1-0.7,0.2c-0.2,0.1-0.5,0.1-0.7,0.1c-0.2,0-0.3-0.1-0.4-0.3c-0.1-0.2,0-0.4,0.4-0.7c0.3-0.3,0.7-0.6,1.2-0.9
		c0.5-0.3,1-0.6,1.5-0.8c0.5-0.2,0.9-0.3,1.2-0.4c0.7,0,1.2,0.1,1.6,0.4c0.4,0.3,0.5,0.9,0.3,1.8c-0.1,0.6-0.5,1.4-1.2,2.3
		c-0.7,0.9-1.5,1.9-2.3,2.8c2.8-1.7,5.6-3.4,8.5-5c1.4-0.8,2.5-1.3,3.2-1.3c1,0,1.6,0.4,1.6,1.1c0,0.6-0.6,1.6-1.9,3
		c-0.8,0.8-1.4,1.6-1.9,2.2s-0.8,1.1-1.1,1.6c5.9-3.6,9.6-5.7,11.2-6.5c2.1-1,3.7-1.6,4.7-1.6c0.3,0,0.4,0.2,0.4,0.7
		c-0.1,0.2-0.3,0.4-0.4,0.7c-0.2,0.2-0.3,0.5-0.5,0.8c-0.2,0.3-0.4,0.7-0.7,1.1c-1,1.6-1.6,3-1.6,4c0,1.6,0.7,2.4,2.2,2.4
		c0.6,0,1.2,0,1.8-0.2c0.6-0.1,1.3-0.3,2.1-0.6c0.8-0.3,1.9-0.8,3.2-1.4c1.3-0.6,2.9-1.4,5-2.4c0.1,0,0.2-0.1,0.3-0.1
		C238.7,90.8,238.8,90.9,238.9,91.2z"/>
	<path class="st0" d="M315.2,60.4c0,2.7-0.6,5.4-1.7,8.2c-1.2,2.8-2.9,5.7-5.3,8.7c-2.2,2.8-4.7,5.4-7.5,7.7
		c-2.8,2.3-5.9,4.5-9.3,6.4c-3.6,2-7,3.4-10.4,4.4c-3.4,1-6.7,1.5-9.9,1.6c-4.2,0-7.7-1.4-10.5-4.1c-2.8-2.6-4.2-6-4.2-10.2
		c0-3.1,0.5-6.1,1.4-9c0.9-2.9,2.4-5.7,4.4-8.5c1.6-2.3,3.5-4.4,5.6-6.3c2.1-1.9,4.5-3.6,7.1-5.2c2.4-1.4,4.6-2.4,6.7-3.1
		c2.1-0.7,4.2-1.1,6.1-1.2v0.8c-2-0.2-5.1,0.9-9.4,3.2c-2.6,1.4-5,2.9-7.1,4.6c-2.1,1.7-4,3.5-5.7,5.6c-2.2,2.5-3.8,5.1-4.8,7.9
		c-1,2.7-1.6,5.5-1.6,8.5c0,4.4,1.3,7.8,4,10.4c1.4,1.3,3,2.3,4.7,2.9c1.8,0.7,3.8,1,6.1,1.1c5.5,0,11.3-1.7,17.4-5.1
		c3-1.6,5.7-3.5,8.1-5.5c2.4-2,4.6-4.3,6.5-6.8c4-5.2,6-10.3,6.1-15.5c0-3.2-1.3-6-3.9-8.3c-2.6-2.3-5.8-3.5-9.5-3.5
		c-1.8,0-3.7,0.4-5.8,1.1c-2.1,0.7-4.3,1.8-6.8,3.3c-5.1,3-9.2,6.6-12.4,10.9c-0.2,0.2-0.6,0.3-1.2,0.2c5.9-7.6,11.5-12.6,17-15
		c1.4-0.6,2.5-1.1,3.3-1.4c0.8-0.3,1.5-0.6,1.9-0.7c1.7-0.6,3.6-0.8,5.6-0.8c4.8,0,8.5,1.1,11.1,3.3
		C313.9,52.9,315.2,56.1,315.2,60.4z"/>
	<path class="st0" d="M333.4,90.7c0,0.3-0.1,0.5-0.2,0.6c-1.6,1.3-3.2,2.4-4.6,3.1c-1.4,0.8-2.7,1.4-3.8,1.8
		c-1.2,0.4-2.2,0.6-3.2,0.7c-0.9,0.1-1.7,0.1-2.4,0c-1-0.2-1.7-0.6-2.3-1.3c-0.6-0.7-0.9-1.8-1.1-3.4c-1.1,1.1-2.6,2.2-4.6,3.1
		c-0.8,0.4-1.5,0.6-2.1,0.9c-0.6,0.2-1,0.3-1.4,0.2c-1.8-0.2-2.8-1.1-2.9-2.6c0-1.4,0.4-2.5,1.1-3.1c0.4-0.4,1-0.6,1.5-0.8
		c0.6-0.1,1,0,1.1,0.4c0.2,0.4,0.2,0.7,0.2,1.1c0,0.4,0,0.8-0.1,1.1s0,0.7,0.1,1c0.1,0.3,0.3,0.5,0.6,0.6c0.3,0.1,0.7,0,1.2-0.1
		c0.5-0.2,1-0.4,1.6-0.7c0.5-0.3,1.1-0.6,1.6-1c0.5-0.4,1-0.7,1.3-1c0.4-0.3,1-0.9,1.7-1.6c0.7-0.8,1.4-1.7,2.4-2.9
		c0.4-0.4,0.7-0.9,1.1-1.4c0.4-0.5,0.8-0.9,1.2-1.4c0.4-0.4,0.7-0.7,1-1c0.3-0.3,0.6-0.4,0.7-0.4c0.1,0,0.3,0,0.5,0
		c0.2,0,0.3,0.1,0.5,0.1c0.1,0.1,0.2,0.3,0.3,0.5c0.1,0.2,0,0.6-0.1,1c-0.2,0.6-0.6,1.1-1.3,1.5c-0.7,0.4-1.4,1-2.2,1.7
		c-1.4,1.4-2.2,2.5-2.2,3.5c0,0.9,0.2,1.7,0.6,2.3c0.4,0.6,1,1.1,1.8,1.3c1.1,0.3,2.1,0.4,3.2,0.2s2.1-0.5,3.1-1c1-0.5,2-1,2.9-1.6
		c0.9-0.6,1.8-1.3,2.6-1.9C333.1,90.1,333.3,90.2,333.4,90.7z"/>
	<path class="st0" d="M348.6,90.4c0,0.3,0,0.5-0.2,0.7c-3.3,2.2-6.2,3.8-8.6,4.8c-2.4,1-4.8,1.5-7,1.6c-2.8,0-4.2-1.4-4.2-4.3
		c0-1.8,1-3.8,3.1-6.2c2.1-2.2,4-3.4,5.5-3.4c0.4,0,0.8,0.1,1.2,0.3c0.4,0.2,0.7,0.7,0.8,1.5c0,0.4-0.1,0.7-0.3,1.1
		c-0.2,0.4-0.5,0.7-0.8,1.1c-0.3,0.4-0.7,0.8-1.1,1.1c-0.4,0.4-0.8,0.7-1.2,1.1c-0.6,0.6-1.3,1.1-2,1.6c-0.7,0.5-1.5,1-2.5,1.5
		c-0.1,0.5,0,0.9,0.2,1.1c0.2,0.2,0.5,0.5,1,0.8c0.7,0.4,1.4,0.7,2.2,0.7c1.3,0,3.1-0.3,5.4-1c2.3-0.7,5-2.1,8-4.1
		c0.1-0.1,0.2-0.2,0.4-0.1C348.5,90.1,348.6,90.2,348.6,90.4z M336.5,86.1c0-0.2-0.3-0.4-0.8-0.5c-0.7,0-1.6,0.6-2.7,1.9
		c-0.6,0.6-1,1.2-1.3,1.8c-0.3,0.6-0.4,1.2-0.4,1.6c0.1,0,0.3-0.1,0.8-0.2c0.4-0.1,0.8-0.3,1.1-0.5c1-0.6,1.8-1.3,2.4-2.1
		C336.1,87.3,336.4,86.6,336.5,86.1z"/>
	<path class="st0" d="M369,90.4c0.3-0.3,0.5-0.2,0.7,0.2c0,0.4-0.1,0.6-0.3,0.7c-2.7,1.8-5.4,3.4-8.3,4.8s-5.8,2.1-8.8,2.1
		c-0.8,0-1.6-0.1-2.3-0.3c-0.7-0.2-1.3-0.5-1.8-0.9c-0.5-0.4-0.9-0.9-1.2-1.5c-0.3-0.6-0.4-1.4-0.3-2.2c0.1-1,0.5-2.1,1-3.3
		s1.6-2.3,3-3.5c0.7-0.6,1.5-1.1,2.3-1.6c0.8-0.5,1.6-0.9,2.4-1.3c0.8-0.4,1.6-0.6,2.4-0.8c0.8-0.2,1.5-0.3,2.1-0.4
		c1.3,0,2,0.6,2,1.8c0,0.6-0.2,1.1-0.7,1.7c-0.5,0.6-1,1.1-1.7,1.5c-0.7,0.5-1.4,0.9-2.2,1.2c-0.8,0.3-1.5,0.5-2.2,0.5
		c-0.4,0-0.8-0.1-0.9-0.2c-0.2-0.1-0.3-0.3-0.4-0.5c-0.2-0.6-0.1-1,0.3-1.3c0.4-0.3,0.9-0.4,1.5-0.4c0.1,0,0.3,0,0.6,0.1
		c0.3,0.1,0.8,0.1,1.3,0.2c0.2,0,0.5,0,0.9-0.2c0.3-0.2,0.6-0.4,0.9-0.6c0.3-0.2,0.5-0.5,0.6-0.8c0.1-0.3,0.1-0.6,0-0.8
		c-0.2-0.3-0.4-0.5-0.5-0.5c-0.2-0.1-0.5-0.1-1-0.1c-0.8,0-1.7,0.2-2.7,0.7c-1.1,0.5-2.1,1.2-3.2,2.2c-2,2-3.1,3.7-3.1,5.2
		c0,1.4,0.5,2.4,1.4,3c0.9,0.7,2.2,1,3.9,1c1.2,0,2.7-0.3,4.5-0.8c1.8-0.5,3.5-1.2,5.3-2.1c0.6-0.3,1-0.5,1.4-0.8
		c0.4-0.2,0.7-0.5,1-0.7c0.3-0.2,0.6-0.4,1-0.6C368.1,91,368.5,90.7,369,90.4z"/>
	<path class="st0" d="M395.9,90.6c0.2-0.1,0.3-0.2,0.5-0.3c0.1-0.1,0.2,0,0.3,0.2c0.1,0.3,0,0.5-0.3,0.8c-1.4,1.1-2.9,2.1-4.4,2.9
		c-1.5,0.9-2.9,1.6-4.2,2.2c-1.3,0.6-2.6,1-3.7,1.3c-1.1,0.3-2.1,0.4-2.8,0.4c-0.5,0-1-0.2-1.5-0.4c-0.5-0.2-0.9-0.5-1.3-0.9
		c-0.4-0.4-0.7-0.9-0.9-1.6s-0.3-1.4-0.3-2.3c-0.5,0.5-1.1,1-1.7,1.6c-0.7,0.5-1.4,1-2.2,1.4c-0.8,0.4-1.5,0.7-2.2,1
		c-0.7,0.2-1.4,0.4-1.9,0.4c-0.6,0-1.2-0.2-1.8-0.6c-0.6-0.4-0.8-1.1-0.8-2c0-1.4,0.6-2.7,1.8-4c0.6-0.6,1.4-1.3,2.6-2.2
		c1.2-0.9,2.6-1.9,4.4-3c0.2,0,0.4,0.1,0.5,0.3c0.1,0.2,0.1,0.4-0.1,0.6c-0.5,0.3-1,0.7-1.6,1c-0.5,0.4-1.1,0.8-1.6,1.2
		c-1,0.8-1.7,1.6-2.2,2.4c-0.5,0.7-0.7,1.5-0.8,2.1c-0.1,1.2,0.3,1.9,1.1,2.1c0.7,0.2,1.5,0,2.5-0.6c0.9-0.5,2-1.3,3.2-2.3
		c0.4-0.4,1-0.9,1.7-1.6c0.7-0.7,1.4-1.7,2.4-2.9c1.4-1.8,2.4-2.8,3.1-2.8c0.5,0,0.8,0.2,0.8,0.7c0,0.4-0.8,1.4-2.3,2.8
		c-1.4,1.4-2.2,2.5-2.2,3.5c0,1.4,0.2,2.3,0.7,2.9c0.5,0.6,1.1,1,1.9,1.3c1.1,0.4,2.4,0.3,3.8-0.1c1.4-0.4,2.9-1.1,4.6-2
		c0.7-0.4,1.5-0.8,2.4-1.3C394.3,92,395.1,91.4,395.9,90.6z"/>
</g>
<g>
</g>
<g>
</g>
<g>
</g>
<g>
</g>
<g>
</g>
<g>
</g>
<g>
</g>
<g>
</g>
<g>
</g>
<g>
</g>
<g>
</g>
<g>
</g>
<g>
</g>
<g>
</g>
<g>
</g>
<g>
</g>
</svg>
